<svg width="66" height="65" viewBox="0 0 66 65" fill="none" xmlns="http://www.w3.org/2000/svg">
<g clip-path="url(#clip0_115_176)">
<path d="M11.9855 0C5.38421 0 0.0688477 5.29392 0.0688477 11.8686V53.1315C0.0688477 59.7061 5.38421 65.0001 11.9855 65.0001H34.4401V39.5891H27.6936V30.4403H34.4401V22.6241C34.4401 16.4832 38.4264 10.8449 47.609 10.8449C51.3269 10.8449 54.0762 11.2003 54.0762 11.2003L53.86 19.7438C53.86 19.7438 51.0561 19.7174 47.9965 19.7174C44.6851 19.7174 44.1541 21.237 44.1541 23.7596V30.4404H54.1231L53.6887 39.5892H44.1541V65.0001H53.4153C60.0167 65.0001 65.332 59.7062 65.332 53.1315V11.8687C65.332 5.29399 60.0167 6.5e-05 53.4153 6.5e-05H11.9854L11.9855 0Z" fill="#FCFBFB"/>
</g>
<defs>
<clipPath id="clip0_115_176">
<rect width="65.2632" height="65" fill="white" transform="translate(0.0688477)"/>
</clipPath>
</defs>
</svg>
