<svg width="66" height="65" viewBox="0 0 66 65" fill="none" xmlns="http://www.w3.org/2000/svg">
<path fill-rule="evenodd" clip-rule="evenodd" d="M48.1553 38.9513C47.341 38.5478 43.349 36.6032 42.6058 36.3323C41.8626 36.0642 41.3216 35.9315 40.7778 36.7386C40.2368 37.5403 38.6821 39.3548 38.2094 39.8911C37.734 40.43 37.2613 40.495 36.4497 40.0942C35.6382 39.688 33.0206 38.8403 29.9193 36.0994C27.5066 33.9653 25.8754 31.3301 25.4027 30.523C24.93 29.7186 25.3508 29.2826 25.7579 28.8817C26.1241 28.5215 26.5694 27.9419 26.9766 27.4734C27.3837 27.0021 27.5176 26.6663 27.7881 26.1274C28.0613 25.5911 27.9247 25.1226 27.7198 24.719C27.5176 24.3155 25.8945 20.3532 25.2169 18.7417C24.5584 17.1736 23.889 17.3876 23.3917 17.3605C22.9162 17.3388 22.3752 17.3334 21.8342 17.3334C21.2932 17.3334 20.4134 17.5338 19.6702 18.3409C18.9242 19.1453 16.8285 21.0926 16.8285 25.0549C16.8285 29.0144 19.7357 32.8413 20.1429 33.3803C20.55 33.9165 25.8672 42.0469 34.0125 45.5325C35.9524 46.3613 37.4635 46.8569 38.6411 47.2252C40.5866 47.84 42.3572 47.7534 43.7561 47.5448C45.3136 47.3146 48.5597 45.5975 49.2373 43.718C49.9122 41.8384 49.9122 40.2269 49.71 39.8911C49.5078 39.5553 48.9668 39.3548 48.1525 38.9513H48.1553ZM33.3403 59.001H33.3294C28.4915 59.0019 23.7424 57.7129 19.58 55.269L18.5963 54.6894L8.37176 57.349L11.1014 47.469L10.4593 46.4561C7.75462 42.1887 6.32328 37.2499 6.33067 32.2103C6.33613 17.4499 18.4515 5.44114 33.3512 5.44114C40.5647 5.44114 47.3465 8.23072 52.4451 13.2899C54.9599 15.7723 56.9532 18.7243 58.3096 21.9752C59.6659 25.2261 60.3585 28.7113 60.3472 32.2292C60.3417 46.9896 48.2263 59.001 33.3403 59.001ZM56.3251 9.44676C53.3145 6.44302 49.7325 4.06135 45.7865 2.43977C41.8406 0.818199 37.6092 -0.0110398 33.3376 0.000110981C15.4295 0.000110981 0.849504 14.449 0.844039 32.2076C0.841307 37.8842 2.33592 43.4254 5.18033 48.3086L0.570801 65L17.7958 60.5204C22.5607 63.0937 27.9004 64.442 33.3266 64.4421H33.3403C51.2483 64.4421 65.8283 49.9932 65.8338 32.2319C65.847 27.9996 65.0134 23.8066 63.3813 19.8956C61.7492 15.9846 59.3508 12.4332 56.3251 9.44676Z" fill="#FCFBFB"/>
</svg>
