<svg width="71" height="51" viewBox="0 0 71 51" fill="none" xmlns="http://www.w3.org/2000/svg">
<g clip-path="url(#clip0_115_174)">
<path d="M69.3011 8.34525C68.9019 6.86443 68.1192 5.51401 67.0313 4.42914C65.9434 3.34427 64.5885 2.563 63.1022 2.16353C57.6312 0.697998 35.7001 0.697998 35.7001 0.697998C35.7001 0.697998 13.7691 0.697998 8.29806 2.15573C6.8111 2.55391 5.45551 3.33475 4.36742 4.41982C3.27933 5.50489 2.49705 6.856 2.09913 8.33746C0.635498 13.7942 0.635498 25.1755 0.635498 25.1755C0.635498 25.1755 0.635498 36.5567 2.09913 42.0057C2.90531 45.0147 5.28469 47.3845 8.29806 48.1874C13.7691 49.6529 35.7001 49.6529 35.7001 49.6529C35.7001 49.6529 57.6312 49.6529 63.1022 48.1874C66.1234 47.3845 68.4949 45.0147 69.3011 42.0057C70.7648 36.5567 70.7648 25.1755 70.7648 25.1755C70.7648 25.1755 70.7648 13.7942 69.3011 8.34525ZM28.7342 35.6212V14.7297L46.8926 25.0975L28.7342 35.6212Z" fill="#FCFBFB"/>
</g>
<defs>
<clipPath id="clip0_115_174">
<rect width="70.2834" height="50.3509" fill="white" transform="translate(0.558716)"/>
</clipPath>
</defs>
</svg>
