<svg width="50" height="50" viewBox="0 0 50 50" fill="none" xmlns="http://www.w3.org/2000/svg">
<path d="M6.44993 48.5858C5.66888 49.3668 4.40255 49.3668 3.6215 48.5858L1.41421 46.3785C0.633163 45.5974 0.633165 44.3311 1.41421 43.5501L34.4072 10.5571C35.6671 9.29714 34.7748 7.14286 32.993 7.14286H16.2857C15.1811 7.14286 14.2857 6.24743 14.2857 5.14286V2C14.2857 0.895432 15.1811 0 16.2857 0H48C49.1046 0 50 0.895432 50 2V33.7143C50 34.8189 49.1046 35.7143 48 35.7143H44.8571C43.7526 35.7143 42.8571 34.8189 42.8571 33.7143V17.007C42.8571 15.2252 40.7029 14.3329 39.4429 15.5928L6.44993 48.5858Z" fill="#B82626"/>
</svg>
