<svg width="50" height="50" viewBox="0 0 50 50" fill="none" xmlns="http://www.w3.org/2000/svg">
<path d="M1.41422 6.44993C0.633167 5.66888 0.633165 4.40255 1.41421 3.6215L3.6215 1.41421C4.40255 0.633163 5.66888 0.633165 6.44993 1.41421L39.4429 34.4072C40.7029 35.6671 42.8571 34.7748 42.8571 32.993V16.2857C42.8571 15.1811 43.7526 14.2857 44.8571 14.2857H48C49.1046 14.2857 50 15.1811 50 16.2857V48C50 49.1046 49.1046 50 48 50H16.2857C15.1811 50 14.2857 49.1046 14.2857 48V44.8571C14.2857 43.7526 15.1811 42.8571 16.2857 42.8571H32.993C34.7748 42.8571 35.6671 40.7029 34.4072 39.4429L1.41422 6.44993Z" fill="#38884A"/>
</svg>
