<?xml version="1.0" encoding="utf-8"?>
<svg viewBox="0 0 500 500" xmlns="http://www.w3.org/2000/svg">
  <g transform="matrix(0.955092, 0, 0, -0.955092, -1301.160278, 2622.675537)" fill="#000000" stroke="none" style="">
    <path d="M1370 2707 c0 -43 46 -87 90 -87 26 0 30 4 30 28 0 37 -56 92 -93 92 -24 0 -27 -4 -27 -33z" fill="#FFFFFF"/>
    <path d="M1500 2708 c0 -21 9 -41 27 -60 24 -25 33 -28 93 -28 62 0 68 2 98 33 20 21 32 43 32 60 0 24 -4 27 -32 27 -22 0 -42 -9 -64 -31 l-32 -31 -35 31 c-20 18 -46 31 -61 31 -23 0 -26 -4 -26 -32z" fill="#FFFFFF"/>
    <path d="M1787 2712 c-18 -19 -27 -39 -27 -60 0 -28 3 -32 28 -32 37 0 92 56 92 93 0 24 -4 27 -33 27 -23 0 -41 -8 -60 -28z" fill="#FFFFFF"/>
    <path d="M1370 2578 c0 -22 9 -42 30 -63 l30 -31 -30 -29 c-22 -21 -30 -38 -30 -62 0 -29 3 -33 28 -33 19 0 39 11 60 33 29 30 32 39 32 93 0 55 -3 63 -33 92 -21 20 -43 32 -60 32 -24 0 -27 -4 -27 -32z" fill="#FFFFFF"/>
    <path d="M1500 2578 c0 -22 9 -42 30 -63 l30 -31 -30 -29 c-22 -21 -30 -38 -30 -62 0 -29 3 -33 27 -33 17 0 39 12 60 32 l33 32 33 -32 c23 -22 43 -32 65 -32 28 0 32 3 32 28 0 18 -11 38 -30 57 -16 16 -30 34 -30 40 0 6 14 24 30 40 19 19 30 39 30 57 0 25 -4 28 -32 28 -22 0 -42 -10 -65 -32 l-33 -32 -33 32 c-21 20 -43 32 -60 32 -24 0 -27 -4 -27 -32z" fill="#FFFFFF"/>
    <path d="M1787 2582 c-24 -25 -27 -36 -27 -97 0 -61 3 -72 27 -97 19 -20 37 -28 60 -28 29 0 33 3 33 26 0 15 -13 41 -30 61 -16 18 -30 37 -30 41 0 5 14 21 30 37 19 19 30 39 30 57 0 25 -3 28 -33 28 -23 0 -41 -8 -60 -28z" fill="#FFFFFF"/>
    <path d="M1397 2322 c-18 -19 -27 -39 -27 -60 0 -28 3 -32 28 -32 37 0 92 56 92 93 0 24 -4 27 -33 27 -23 0 -41 -8 -60 -28z" fill="#FFFFFF"/>
    <path d="M1527 2322 c-18 -19 -27 -39 -27 -60 0 -28 3 -32 27 -32 17 0 39 12 60 32 l33 32 33 -32 c23 -22 43 -32 65 -32 28 0 32 3 32 28 0 19 -11 39 -33 60 -30 29 -38 32 -98 32 -58 0 -68 -3 -92 -28z" fill="#FFFFFF"/>
    <path d="M1760 2318 c0 -45 43 -88 87 -88 29 0 33 3 33 28 0 37 -56 92 -93 92 -24 0 -27 -4 -27 -32z" fill="#FFFFFF"/>
  </g>
</svg>